<svg xmlns="http://www.w3.org/2000/svg" xmlns:xlink="http://www.w3.org/1999/xlink" width="435" height="968" fill="#000" fill-opacity="0" stroke="#000" stroke-dasharray="none" stroke-dashoffset="0" stroke-linecap="square" stroke-linejoin="miter" stroke-miterlimit="10" stroke-opacity="0" stroke-width="1" color-interpolation="auto" color-rendering="auto" font-family="'Dialog'" font-size="12" font-style="normal" font-weight="normal" image-rendering="auto" shape-rendering="auto" text-rendering="auto"><g><defs id="defs1"><clipPath id="clipPath1" clipPathUnits="userSpaceOnUse"><path d="M-7 -7 L263 -7 L263 973 L-7 973 L-7 -7 Z"/></clipPath><clipPath id="clipPath2" clipPathUnits="userSpaceOnUse"><path d="M0 0 L0 963 L253 963 L253 0 Z"/></clipPath><clipPath id="clipPath3" clipPathUnits="userSpaceOnUse"><path d="M-7 -7 L91 -7 L91 51 L-7 51 L-7 -7 Z"/></clipPath><clipPath id="clipPath4" clipPathUnits="userSpaceOnUse"><path d="M0 0 L0 40 L80 40 L80 0 Z"/></clipPath><clipPath id="clipPath5" clipPathUnits="userSpaceOnUse"><path d="M-7 -7 L164 -7 L164 63 L-7 63 L-7 -7 Z"/></clipPath><clipPath id="clipPath6" clipPathUnits="userSpaceOnUse"><path d="M0 0 L0 52 L153 52 L153 0 Z"/></clipPath><clipPath id="clipPath7" clipPathUnits="userSpaceOnUse"><path d="M-7 -7 L141 -7 L141 51 L-7 51 L-7 -7 Z"/></clipPath><clipPath id="clipPath8" clipPathUnits="userSpaceOnUse"><path d="M0 0 L0 40 L130 40 L130 0 Z"/></clipPath><clipPath id="clipPath9" clipPathUnits="userSpaceOnUse"><path d="M-7 -7 L151 -7 L151 56 L-7 56 L-7 -7 Z"/></clipPath><clipPath id="clipPath10" clipPathUnits="userSpaceOnUse"><path d="M0 0 L0 45 L140 45 L140 0 Z"/></clipPath><clipPath id="clipPath11" clipPathUnits="userSpaceOnUse"><path d="M-7 -7 L132 -7 L132 51 L-7 51 L-7 -7 Z"/></clipPath><clipPath id="clipPath12" clipPathUnits="userSpaceOnUse"><path d="M0 0 L0 40 L121 40 L121 0 Z"/></clipPath><clipPath id="clipPath13" clipPathUnits="userSpaceOnUse"><path d="M-7 -7 L146 -7 L146 51 L-7 51 L-7 -7 Z"/></clipPath><clipPath id="clipPath14" clipPathUnits="userSpaceOnUse"><path d="M0 0 L0 40 L135 40 L135 0 Z"/></clipPath><clipPath id="clipPath15" clipPathUnits="userSpaceOnUse"><path d="M-7 -7 L41 -7 L41 71 L-7 71 L-7 -7 Z"/></clipPath><clipPath id="clipPath16" clipPathUnits="userSpaceOnUse"><path d="M-7 -7 L121 -7 L121 51 L-7 51 L-7 -7 Z"/></clipPath><clipPath id="clipPath17" clipPathUnits="userSpaceOnUse"><path d="M0 0 L0 40 L110 40 L110 0 Z"/></clipPath><clipPath id="clipPath18" clipPathUnits="userSpaceOnUse"><path d="M-7 -7 L135 -7 L135 51 L-7 51 L-7 -7 Z"/></clipPath><clipPath id="clipPath19" clipPathUnits="userSpaceOnUse"><path d="M0 0 L0 40 L124 40 L124 0 Z"/></clipPath><clipPath id="clipPath20" clipPathUnits="userSpaceOnUse"><path d="M-7 -7 L128 -7 L128 51 L-7 51 L-7 -7 Z"/></clipPath><clipPath id="clipPath21" clipPathUnits="userSpaceOnUse"><path d="M0 0 L0 40 L117 40 L117 0 Z"/></clipPath><clipPath id="clipPath22" clipPathUnits="userSpaceOnUse"><path d="M-7 -7 L129 -7 L129 51 L-7 51 L-7 -7 Z"/></clipPath><clipPath id="clipPath23" clipPathUnits="userSpaceOnUse"><path d="M0 0 L0 40 L118 40 L118 0 Z"/></clipPath><clipPath id="clipPath24" clipPathUnits="userSpaceOnUse"><path d="M-7 -7 L167 -7 L167 51 L-7 51 L-7 -7 Z"/></clipPath><clipPath id="clipPath25" clipPathUnits="userSpaceOnUse"><path d="M0 0 L0 40 L156 40 L156 0 Z"/></clipPath><clipPath id="clipPath26" clipPathUnits="userSpaceOnUse"><path d="M-7 -7 L203 -7 L203 51 L-7 51 L-7 -7 Z"/></clipPath><clipPath id="clipPath27" clipPathUnits="userSpaceOnUse"><path d="M0 0 L0 40 L192 40 L192 0 Z"/></clipPath><clipPath id="clipPath28" clipPathUnits="userSpaceOnUse"><path d="M-45 -16 L90 -16 L90 32 L-45 32 L-45 -16 Z"/></clipPath><clipPath id="clipPath29" clipPathUnits="userSpaceOnUse"><path d="M-70 -16 L140 -16 L140 32 L-70 32 L-70 -16 Z"/></clipPath><clipPath id="clipPath30" clipPathUnits="userSpaceOnUse"><path d="M-135 -18 L270 -18 L270 36 L-135 36 L-135 -18 Z"/></clipPath><clipPath id="clipPath31" clipPathUnits="userSpaceOnUse"><path d="M-98 -15 L196 -15 L196 30 L-98 30 L-98 -15 Z"/></clipPath><clipPath id="clipPath32" clipPathUnits="userSpaceOnUse"><path d="M0 0 L247 0 L247 115 L0 115 L0 0 Z"/></clipPath><clipPath id="clipPath33" clipPathUnits="userSpaceOnUse"><path d="M62 85 L62 101 L17 101 L17 85 ZM0 0 L0 115 L247 115 L247 0 Z"/></clipPath><clipPath id="clipPath34" clipPathUnits="userSpaceOnUse"><path d="M0 0 L291 0 L291 119 L0 119 L0 0 Z"/></clipPath><clipPath id="clipPath35" clipPathUnits="userSpaceOnUse"><path d="M64 57 L64 73 L19 73 L19 57 ZM0 0 L0 119 L291 119 L291 0 Z"/></clipPath><clipPath id="clipPath36" clipPathUnits="userSpaceOnUse"><path d="M0 0 L230 0 L230 104 L0 104 L0 0 Z"/></clipPath><clipPath id="clipPath37" clipPathUnits="userSpaceOnUse"><path d="M0 0 L0 104 L230 104 L230 0 Z"/></clipPath><clipPath id="clipPath38" clipPathUnits="userSpaceOnUse"><path d="M0 0 L227 0 L227 216 L0 216 L0 0 Z"/></clipPath><clipPath id="clipPath39" clipPathUnits="userSpaceOnUse"><path d="M0 0 L0 44 L62 44 L62 60 L0 60 L0 216 L227 216 L227 0 Z"/></clipPath><clipPath id="clipPath40" clipPathUnits="userSpaceOnUse"><path d="M0 0 L266 0 L266 143 L0 143 L0 0 Z"/></clipPath><clipPath id="clipPath41" clipPathUnits="userSpaceOnUse"><path d="M0 0 L0 143 L266 143 L266 0 Z"/></clipPath><clipPath id="clipPath42" clipPathUnits="userSpaceOnUse"><path d="M0 0 L247 0 L247 129 L0 129 L0 0 Z"/></clipPath><clipPath id="clipPath43" clipPathUnits="userSpaceOnUse"><path d="M0 0 L0 49 L60 49 L60 64 L0 64 L0 129 L247 129 L247 0 Z"/></clipPath><clipPath id="clipPath44" clipPathUnits="userSpaceOnUse"><path d="M0 0 L129 0 L129 275 L0 275 L0 0 Z"/></clipPath><clipPath id="clipPath45" clipPathUnits="userSpaceOnUse"><path d="M125 44 L125 60 L55 60 L55 44 ZM0 0 L0 275 L13 275 L13 269 L111 269 L111 275 L129 275 L129 0 Z"/></clipPath><clipPath id="clipPath46" clipPathUnits="userSpaceOnUse"><path d="M0 0 L262 0 L262 204 L0 204 L0 0 Z"/></clipPath><clipPath id="clipPath47" clipPathUnits="userSpaceOnUse"><path d="M0 0 L0 204 L262 204 L262 0 Z"/></clipPath><clipPath id="clipPath48" clipPathUnits="userSpaceOnUse"><path d="M0 0 L212 0 L212 104 L0 104 L0 0 Z"/></clipPath><clipPath id="clipPath49" clipPathUnits="userSpaceOnUse"><path d="M0 0 L0 36 L48 36 L48 52 L0 52 L0 104 L212 104 L212 0 Z"/></clipPath><clipPath id="clipPath50" clipPathUnits="userSpaceOnUse"><path d="M0 0 L235 0 L235 132 L0 132 L0 0 Z"/></clipPath><clipPath id="clipPath51" clipPathUnits="userSpaceOnUse"><path d="M0 0 L0 32 L48 32 L48 48 L0 48 L0 132 L235 132 L235 0 Z"/></clipPath><clipPath id="clipPath52" clipPathUnits="userSpaceOnUse"><path d="M0 0 L235 0 L235 453 L0 453 L0 0 Z"/></clipPath><clipPath id="clipPath53" clipPathUnits="userSpaceOnUse"><path d="M0 0 L0 139 L80 139 L80 154 L0 154 L0 443 L99 443 L99 453 L235 453 L235 0 Z"/></clipPath><clipPath id="clipPath54" clipPathUnits="userSpaceOnUse"><path d="M0 0 L237 0 L237 94 L0 94 L0 0 Z"/></clipPath><clipPath id="clipPath55" clipPathUnits="userSpaceOnUse"><path d="M0 0 L0 94 L237 94 L237 0 Z"/></clipPath><clipPath id="clipPath56" clipPathUnits="userSpaceOnUse"><path d="M0 0 L289 0 L289 129 L0 129 L0 0 Z"/></clipPath><clipPath id="clipPath57" clipPathUnits="userSpaceOnUse"><path d="M0 0 L0 105 L96 105 L96 120 L0 120 L0 129 L289 129 L289 0 Z"/></clipPath><clipPath id="clipPath58" clipPathUnits="userSpaceOnUse"><path d="M0 0 L224 0 L224 129 L0 129 L0 0 Z"/></clipPath><clipPath id="clipPath59" clipPathUnits="userSpaceOnUse"><path d="M0 0 L0 63 L60 63 L60 81 L0 81 L0 129 L224 129 L224 0 Z"/></clipPath><clipPath id="clipPath60" clipPathUnits="userSpaceOnUse"><path d="M0 0 L269 0 L269 185 L0 185 L0 0 Z"/></clipPath><clipPath id="clipPath61" clipPathUnits="userSpaceOnUse"><path d="M0 0 L0 45 L61 45 L61 60 L0 60 L0 185 L269 185 L269 0 Z"/></clipPath><clipPath id="clipPath62" clipPathUnits="userSpaceOnUse"><path d="M0 0 L129 0 L129 355 L0 355 L0 0 Z"/></clipPath><clipPath id="clipPath63" clipPathUnits="userSpaceOnUse"><path d="M111 46 L111 61 L13 61 L13 46 ZM0 0 L0 350 L129 350 L129 0 Z"/></clipPath><clipPath id="clipPath64" clipPathUnits="userSpaceOnUse"><path d="M0 0 L264 0 L264 269 L0 269 L0 0 Z"/></clipPath><clipPath id="clipPath65" clipPathUnits="userSpaceOnUse"><path d="M0 0 L0 45 L63 45 L63 60 L0 60 L0 269 L264 269 L264 0 Z"/></clipPath><clipPath id="clipPath66" clipPathUnits="userSpaceOnUse"><path d="M0 0 L184 0 L184 127 L0 127 L0 0 Z"/></clipPath><clipPath id="clipPath67" clipPathUnits="userSpaceOnUse"><path d="M0 0 L0 25 L44 25 L44 43 L0 43 L0 127 L184 127 L184 0 Z"/></clipPath></defs><g fill="#fff" fill-opacity="1" stroke="#fff" stroke-opacity="1" text-rendering="geometricPrecision"><rect width="435" height="968" x="0" y="0" stroke="none"/></g><g fill="#7ACFF5" fill-opacity="1" stroke="#7ACFF5" stroke-opacity="1" font-family="sans-serif" font-size="11" image-rendering="optimizeQuality" text-rendering="geometricPrecision" transform="translate(179,2)"><rect width="251" height="961" x="0" y="0" stroke="none" clip-path="url(#clipPath1)"/></g><g fill="#000" fill-opacity="1" stroke="#000" stroke-linecap="butt" stroke-linejoin="round" stroke-miterlimit="0" stroke-opacity="1" font-family="sans-serif" font-size="11" image-rendering="optimizeQuality" text-rendering="geometricPrecision" transform="translate(179,2)"><rect width="251" height="961" x="0" y="0" fill="none" clip-path="url(#clipPath1)"/></g><g fill="#000" fill-opacity="1" stroke="#000" stroke-opacity="1" font-family="sans-serif" font-size="11" image-rendering="optimizeQuality" text-rendering="geometricPrecision"><text x="98" y="12" stroke="none" clip-path="url(#clipPath2)" transform="translate(179,2)" xml:space="preserve">CloneBook</text></g><g fill="#0f0" fill-opacity="1" stroke="#0f0" stroke-opacity="1" font-family="sans-serif" font-size="11" image-rendering="optimizeQuality" text-rendering="geometricPrecision" transform="translate(259,198)"><ellipse cx="40" cy="20" stroke="none" clip-path="url(#clipPath3)" rx="40" ry="20"/></g><g fill="#000" fill-opacity="1" stroke="#000" stroke-linecap="butt" stroke-linejoin="round" stroke-miterlimit="0" stroke-opacity="1" font-family="sans-serif" font-size="11" image-rendering="optimizeQuality" text-rendering="geometricPrecision" transform="translate(259,198)"><ellipse cx="40" cy="20" fill="none" clip-path="url(#clipPath3)" rx="40" ry="20"/></g><g fill="#000" fill-opacity="1" stroke="#000" stroke-opacity="1" font-family="sans-serif" font-size="11" image-rendering="optimizeQuality" text-rendering="geometricPrecision"><text x="22" y="16" stroke="none" clip-path="url(#clipPath4)" transform="translate(259,198)" xml:space="preserve">Pagina</text><text x="12" y="32" stroke="none" clip-path="url(#clipPath4)" transform="translate(259,198)" xml:space="preserve">aanmaken</text></g><g fill="#0f0" fill-opacity="1" stroke="#0f0" stroke-opacity="1" font-family="sans-serif" font-size="11" image-rendering="optimizeQuality" text-rendering="geometricPrecision" transform="translate(219,423)"><ellipse cx="76.5" cy="26" stroke="none" clip-path="url(#clipPath5)" rx="76.5" ry="26"/></g><g fill="#000" fill-opacity="1" stroke="#000" stroke-linecap="butt" stroke-linejoin="round" stroke-miterlimit="0" stroke-opacity="1" font-family="sans-serif" font-size="11" image-rendering="optimizeQuality" text-rendering="geometricPrecision" transform="translate(219,423)"><ellipse cx="76.5" cy="26" fill="none" clip-path="url(#clipPath5)" rx="76.5" ry="26"/></g><g fill="#000" fill-opacity="1" stroke="#000" stroke-opacity="1" font-family="sans-serif" font-size="11" image-rendering="optimizeQuality" text-rendering="geometricPrecision"><text x="17" y="30" stroke="none" clip-path="url(#clipPath6)" transform="translate(219,423)" xml:space="preserve">Lid worden van pagina</text></g><g fill="#0f0" fill-opacity="1" stroke="#0f0" stroke-opacity="1" font-family="sans-serif" font-size="11" image-rendering="optimizeQuality" text-rendering="geometricPrecision" transform="translate(237,257)"><ellipse cx="65" cy="20" stroke="none" clip-path="url(#clipPath7)" rx="65" ry="20"/></g><g fill="#000" fill-opacity="1" stroke="#000" stroke-linecap="butt" stroke-linejoin="round" stroke-miterlimit="0" stroke-opacity="1" font-family="sans-serif" font-size="11" image-rendering="optimizeQuality" text-rendering="geometricPrecision" transform="translate(237,257)"><ellipse cx="65" cy="20" fill="none" clip-path="url(#clipPath7)" rx="65" ry="20"/></g><g fill="#000" fill-opacity="1" stroke="#000" stroke-opacity="1" font-family="sans-serif" font-size="11" image-rendering="optimizeQuality" text-rendering="geometricPrecision"><text x="25" y="24" stroke="none" clip-path="url(#clipPath8)" transform="translate(237,257)" xml:space="preserve">chat aanmaken</text></g><g fill="#0f0" fill-opacity="1" stroke="#0f0" stroke-opacity="1" font-family="sans-serif" font-size="11" image-rendering="optimizeQuality" text-rendering="geometricPrecision" transform="translate(234,553)"><ellipse cx="70" cy="22.5" stroke="none" clip-path="url(#clipPath9)" rx="70" ry="22.5"/></g><g fill="#000" fill-opacity="1" stroke="#000" stroke-linecap="butt" stroke-linejoin="round" stroke-miterlimit="0" stroke-opacity="1" font-family="sans-serif" font-size="11" image-rendering="optimizeQuality" text-rendering="geometricPrecision" transform="translate(234,553)"><ellipse cx="70" cy="22.5" fill="none" clip-path="url(#clipPath9)" rx="70" ry="22.5"/></g><g fill="#000" fill-opacity="1" stroke="#000" stroke-opacity="1" font-family="sans-serif" font-size="11" image-rendering="optimizeQuality" text-rendering="geometricPrecision"><text x="12" y="18" stroke="none" clip-path="url(#clipPath10)" transform="translate(234,553)" xml:space="preserve">Bericht/reactie posten</text><text x="43" y="34" stroke="none" clip-path="url(#clipPath10)" transform="translate(234,553)" xml:space="preserve">op pagina</text></g><g fill="#0f0" fill-opacity="1" stroke="#0f0" stroke-opacity="1" font-family="sans-serif" font-size="11" image-rendering="optimizeQuality" text-rendering="geometricPrecision" transform="translate(240,316)"><ellipse cx="60.5" cy="20" stroke="none" clip-path="url(#clipPath11)" rx="60.5" ry="20"/></g><g fill="#000" fill-opacity="1" stroke="#000" stroke-linecap="butt" stroke-linejoin="round" stroke-miterlimit="0" stroke-opacity="1" font-family="sans-serif" font-size="11" image-rendering="optimizeQuality" text-rendering="geometricPrecision" transform="translate(240,316)"><ellipse cx="60.5" cy="20" fill="none" clip-path="url(#clipPath11)" rx="60.5" ry="20"/></g><g fill="#000" fill-opacity="1" stroke="#000" stroke-opacity="1" font-family="sans-serif" font-size="11" image-rendering="optimizeQuality" text-rendering="geometricPrecision"><text x="5" y="24" stroke="none" clip-path="url(#clipPath12)" transform="translate(240,316)" xml:space="preserve">Bericht sturen in chat</text></g><g fill="#0f0" fill-opacity="1" stroke="#0f0" stroke-opacity="1" font-family="sans-serif" font-size="11" image-rendering="optimizeQuality" text-rendering="geometricPrecision" transform="translate(259,80)"><ellipse cx="40" cy="20" stroke="none" clip-path="url(#clipPath3)" rx="40" ry="20"/></g><g fill="#000" fill-opacity="1" stroke="#000" stroke-linecap="butt" stroke-linejoin="round" stroke-miterlimit="0" stroke-opacity="1" font-family="sans-serif" font-size="11" image-rendering="optimizeQuality" text-rendering="geometricPrecision" transform="translate(259,80)"><ellipse cx="40" cy="20" fill="none" clip-path="url(#clipPath3)" rx="40" ry="20"/></g><g fill="#000" fill-opacity="1" stroke="#000" stroke-opacity="1" font-family="sans-serif" font-size="11" image-rendering="optimizeQuality" text-rendering="geometricPrecision"><text x="16" y="24" stroke="none" clip-path="url(#clipPath4)" transform="translate(259,80)" xml:space="preserve">Inloggen</text></g><g fill="#0f0" fill-opacity="1" stroke="#0f0" stroke-opacity="1" font-family="sans-serif" font-size="11" image-rendering="optimizeQuality" text-rendering="geometricPrecision" transform="translate(260,139)"><ellipse cx="40" cy="20" stroke="none" clip-path="url(#clipPath3)" rx="40" ry="20"/></g><g fill="#000" fill-opacity="1" stroke="#000" stroke-linecap="butt" stroke-linejoin="round" stroke-miterlimit="0" stroke-opacity="1" font-family="sans-serif" font-size="11" image-rendering="optimizeQuality" text-rendering="geometricPrecision" transform="translate(260,139)"><ellipse cx="40" cy="20" fill="none" clip-path="url(#clipPath3)" rx="40" ry="20"/></g><g fill="#000" fill-opacity="1" stroke="#000" stroke-opacity="1" font-family="sans-serif" font-size="11" image-rendering="optimizeQuality" text-rendering="geometricPrecision"><text x="14" y="24" stroke="none" clip-path="url(#clipPath4)" transform="translate(260,139)" xml:space="preserve">Uitloggen</text></g><g fill="#0f0" fill-opacity="1" stroke="#0f0" stroke-opacity="1" font-family="sans-serif" font-size="11" image-rendering="optimizeQuality" text-rendering="geometricPrecision" transform="translate(225,772)"><ellipse cx="67.5" cy="20" stroke="none" clip-path="url(#clipPath13)" rx="67.5" ry="20"/></g><g fill="#000" fill-opacity="1" stroke="#000" stroke-linecap="butt" stroke-linejoin="round" stroke-miterlimit="0" stroke-opacity="1" font-family="sans-serif" font-size="11" image-rendering="optimizeQuality" text-rendering="geometricPrecision" transform="translate(225,772)"><ellipse cx="67.5" cy="20" fill="none" clip-path="url(#clipPath13)" rx="67.5" ry="20"/></g><g fill="#000" fill-opacity="1" stroke="#000" stroke-opacity="1" font-family="sans-serif" font-size="11" image-rendering="optimizeQuality" text-rendering="geometricPrecision"><text x="24" y="16" stroke="none" clip-path="url(#clipPath14)" transform="translate(225,772)" xml:space="preserve">Leden uit pagina</text><text x="47" y="32" stroke="none" clip-path="url(#clipPath14)" transform="translate(225,772)" xml:space="preserve">bannen</text></g><g fill="#7ACFF5" fill-opacity="1" stroke="#7ACFF5" stroke-opacity="1" font-family="sans-serif" font-size="11" image-rendering="optimizeQuality" text-rendering="geometricPrecision" transform="translate(82,17)"><circle cx="14.5" cy="7.5" r="7.5" stroke="none" clip-path="url(#clipPath15)"/></g><g fill="#000" fill-opacity="1" stroke="#000" stroke-linecap="butt" stroke-linejoin="round" stroke-miterlimit="0" stroke-opacity="1" font-family="sans-serif" font-size="11" image-rendering="optimizeQuality" text-rendering="geometricPrecision" transform="translate(82,17)"><circle cx="14.5" cy="7.5" r="7.5" fill="none" clip-path="url(#clipPath15)"/><line x1="15" x2="15" y1="15" y2="40" fill="none" clip-path="url(#clipPath15)"/><line x1="0" x2="30" y1="24" y2="24" fill="none" clip-path="url(#clipPath15)"/><line x1="15" x2="0" y1="40" y2="60" fill="none" clip-path="url(#clipPath15)"/><line x1="15" x2="30" y1="40" y2="60" fill="none" clip-path="url(#clipPath15)"/></g><g fill="#0f0" fill-opacity="1" stroke="#0f0" stroke-opacity="1" font-family="sans-serif" font-size="11" image-rendering="optimizeQuality" text-rendering="geometricPrecision" transform="translate(245,27)"><ellipse cx="55" cy="20" stroke="none" clip-path="url(#clipPath16)" rx="55" ry="20"/></g><g fill="#000" fill-opacity="1" stroke="#000" stroke-linecap="butt" stroke-linejoin="round" stroke-miterlimit="0" stroke-opacity="1" font-family="sans-serif" font-size="11" image-rendering="optimizeQuality" text-rendering="geometricPrecision" transform="translate(245,27)"><ellipse cx="55" cy="20" fill="none" clip-path="url(#clipPath16)" rx="55" ry="20"/></g><g fill="#000" fill-opacity="1" stroke="#000" stroke-opacity="1" font-family="sans-serif" font-size="11" image-rendering="optimizeQuality" text-rendering="geometricPrecision"><text x="4" y="24" stroke="none" clip-path="url(#clipPath17)" transform="translate(245,27)" xml:space="preserve">Account aanmaken</text></g><g fill="#7ACFF5" fill-opacity="1" stroke="#7ACFF5" stroke-opacity="1" font-family="sans-serif" font-size="11" image-rendering="optimizeQuality" text-rendering="geometricPrecision" transform="translate(82,268)"><circle cx="14.5" cy="7.5" r="7.5" stroke="none" clip-path="url(#clipPath15)"/></g><g fill="#000" fill-opacity="1" stroke="#000" stroke-linecap="butt" stroke-linejoin="round" stroke-miterlimit="0" stroke-opacity="1" font-family="sans-serif" font-size="11" image-rendering="optimizeQuality" text-rendering="geometricPrecision" transform="translate(82,268)"><circle cx="14.5" cy="7.5" r="7.5" fill="none" clip-path="url(#clipPath15)"/><line x1="15" x2="15" y1="15" y2="40" fill="none" clip-path="url(#clipPath15)"/><line x1="0" x2="30" y1="24" y2="24" fill="none" clip-path="url(#clipPath15)"/><line x1="15" x2="0" y1="40" y2="60" fill="none" clip-path="url(#clipPath15)"/><line x1="15" x2="30" y1="40" y2="60" fill="none" clip-path="url(#clipPath15)"/></g><g fill="#7ACFF5" fill-opacity="1" stroke="#7ACFF5" stroke-opacity="1" font-family="sans-serif" font-size="11" image-rendering="optimizeQuality" text-rendering="geometricPrecision" transform="translate(54,797)"><circle cx="14.5" cy="7.5" r="7.5" stroke="none" clip-path="url(#clipPath15)"/></g><g fill="#000" fill-opacity="1" stroke="#000" stroke-linecap="butt" stroke-linejoin="round" stroke-miterlimit="0" stroke-opacity="1" font-family="sans-serif" font-size="11" image-rendering="optimizeQuality" text-rendering="geometricPrecision" transform="translate(54,797)"><circle cx="14.5" cy="7.5" r="7.5" fill="none" clip-path="url(#clipPath15)"/><line x1="15" x2="15" y1="15" y2="40" fill="none" clip-path="url(#clipPath15)"/><line x1="0" x2="30" y1="24" y2="24" fill="none" clip-path="url(#clipPath15)"/><line x1="15" x2="0" y1="40" y2="60" fill="none" clip-path="url(#clipPath15)"/><line x1="15" x2="30" y1="40" y2="60" fill="none" clip-path="url(#clipPath15)"/></g><g fill="#7ACFF5" fill-opacity="1" stroke="#7ACFF5" stroke-opacity="1" font-family="sans-serif" font-size="11" image-rendering="optimizeQuality" text-rendering="geometricPrecision" transform="translate(54,493)"><circle cx="14.5" cy="7.5" r="7.5" stroke="none" clip-path="url(#clipPath15)"/></g><g fill="#000" fill-opacity="1" stroke="#000" stroke-linecap="butt" stroke-linejoin="round" stroke-miterlimit="0" stroke-opacity="1" font-family="sans-serif" font-size="11" image-rendering="optimizeQuality" text-rendering="geometricPrecision" transform="translate(54,493)"><circle cx="14.5" cy="7.5" r="7.5" fill="none" clip-path="url(#clipPath15)"/><line x1="15" x2="15" y1="15" y2="40" fill="none" clip-path="url(#clipPath15)"/><line x1="0" x2="30" y1="24" y2="24" fill="none" clip-path="url(#clipPath15)"/><line x1="15" x2="0" y1="40" y2="60" fill="none" clip-path="url(#clipPath15)"/><line x1="15" x2="30" y1="40" y2="60" fill="none" clip-path="url(#clipPath15)"/></g><g fill="#0f0" fill-opacity="1" stroke="#0f0" stroke-opacity="1" font-family="sans-serif" font-size="11" image-rendering="optimizeQuality" text-rendering="geometricPrecision" transform="translate(243,369)"><ellipse cx="62" cy="20" stroke="none" clip-path="url(#clipPath18)" rx="62" ry="20"/></g><g fill="#000" fill-opacity="1" stroke="#000" stroke-linecap="butt" stroke-linejoin="round" stroke-miterlimit="0" stroke-opacity="1" font-family="sans-serif" font-size="11" image-rendering="optimizeQuality" text-rendering="geometricPrecision" transform="translate(243,369)"><ellipse cx="62" cy="20" fill="none" clip-path="url(#clipPath18)" rx="62" ry="20"/></g><g fill="#000" fill-opacity="1" stroke="#000" stroke-opacity="1" font-family="sans-serif" font-size="11" image-rendering="optimizeQuality" text-rendering="geometricPrecision"><text x="5" y="24" stroke="none" clip-path="url(#clipPath19)" transform="translate(243,369)" xml:space="preserve">Meldingen ontvangen</text></g><g fill="#0f0" fill-opacity="1" stroke="#0f0" stroke-opacity="1" font-family="sans-serif" font-size="11" image-rendering="optimizeQuality" text-rendering="geometricPrecision" transform="translate(244,490)"><ellipse cx="60.5" cy="20" stroke="none" clip-path="url(#clipPath11)" rx="60.5" ry="20"/></g><g fill="#000" fill-opacity="1" stroke="#000" stroke-linecap="butt" stroke-linejoin="round" stroke-miterlimit="0" stroke-opacity="1" font-family="sans-serif" font-size="11" image-rendering="optimizeQuality" text-rendering="geometricPrecision" transform="translate(244,490)"><ellipse cx="60.5" cy="20" fill="none" clip-path="url(#clipPath11)" rx="60.5" ry="20"/></g><g fill="#000" fill-opacity="1" stroke="#000" stroke-opacity="1" font-family="sans-serif" font-size="11" image-rendering="optimizeQuality" text-rendering="geometricPrecision"><text x="20" y="24" stroke="none" clip-path="url(#clipPath12)" transform="translate(244,490)" xml:space="preserve">Pagina verlaten</text></g><g fill="#0f0" fill-opacity="1" stroke="#0f0" stroke-opacity="1" font-family="sans-serif" font-size="11" image-rendering="optimizeQuality" text-rendering="geometricPrecision" transform="translate(234,837)"><ellipse cx="58.5" cy="20" stroke="none" clip-path="url(#clipPath20)" rx="58.5" ry="20"/></g><g fill="#000" fill-opacity="1" stroke="#000" stroke-linecap="butt" stroke-linejoin="round" stroke-miterlimit="0" stroke-opacity="1" font-family="sans-serif" font-size="11" image-rendering="optimizeQuality" text-rendering="geometricPrecision" transform="translate(234,837)"><ellipse cx="58.5" cy="20" fill="none" clip-path="url(#clipPath20)" rx="58.5" ry="20"/></g><g fill="#000" fill-opacity="1" stroke="#000" stroke-opacity="1" font-family="sans-serif" font-size="11" image-rendering="optimizeQuality" text-rendering="geometricPrecision"><text x="16" y="16" stroke="none" clip-path="url(#clipPath21)" transform="translate(234,837)" xml:space="preserve">naam/icoon van</text><text x="11" y="32" stroke="none" clip-path="url(#clipPath21)" transform="translate(234,837)" xml:space="preserve">pagina aanpassen</text></g><g fill="#0f0" fill-opacity="1" stroke="#0f0" stroke-opacity="1" font-family="sans-serif" font-size="11" image-rendering="optimizeQuality" text-rendering="geometricPrecision" transform="translate(243,620)"><ellipse cx="59" cy="20" stroke="none" clip-path="url(#clipPath22)" rx="59" ry="20"/></g><g fill="#000" fill-opacity="1" stroke="#000" stroke-linecap="butt" stroke-linejoin="round" stroke-miterlimit="0" stroke-opacity="1" font-family="sans-serif" font-size="11" image-rendering="optimizeQuality" text-rendering="geometricPrecision" transform="translate(243,620)"><ellipse cx="59" cy="20" fill="none" clip-path="url(#clipPath22)" rx="59" ry="20"/></g><g fill="#000" fill-opacity="1" stroke="#000" stroke-opacity="1" font-family="sans-serif" font-size="11" image-rendering="optimizeQuality" text-rendering="geometricPrecision"><text x="5" y="24" stroke="none" clip-path="url(#clipPath23)" transform="translate(243,620)" xml:space="preserve">Post up-/down voten</text></g><g fill="#0f0" fill-opacity="1" stroke="#0f0" stroke-opacity="1" font-family="sans-serif" font-size="11" image-rendering="optimizeQuality" text-rendering="geometricPrecision" transform="translate(243,700)"><ellipse cx="78" cy="20" stroke="none" clip-path="url(#clipPath24)" rx="78" ry="20"/></g><g fill="#000" fill-opacity="1" stroke="#000" stroke-linecap="butt" stroke-linejoin="round" stroke-miterlimit="0" stroke-opacity="1" font-family="sans-serif" font-size="11" image-rendering="optimizeQuality" text-rendering="geometricPrecision" transform="translate(243,700)"><ellipse cx="78" cy="20" fill="none" clip-path="url(#clipPath24)" rx="78" ry="20"/></g><g fill="#000" fill-opacity="1" stroke="#000" stroke-opacity="1" font-family="sans-serif" font-size="11" image-rendering="optimizeQuality" text-rendering="geometricPrecision"><text x="4" y="24" stroke="none" clip-path="url(#clipPath25)" transform="translate(243,700)" xml:space="preserve">Eigen berichten verwijderen</text></g><g fill="#0f0" fill-opacity="1" stroke="#0f0" stroke-opacity="1" font-family="sans-serif" font-size="11" image-rendering="optimizeQuality" text-rendering="geometricPrecision" transform="translate(206,902)"><ellipse cx="96" cy="20" stroke="none" clip-path="url(#clipPath26)" rx="96" ry="20"/></g><g fill="#000" fill-opacity="1" stroke="#000" stroke-linecap="butt" stroke-linejoin="round" stroke-miterlimit="0" stroke-opacity="1" font-family="sans-serif" font-size="11" image-rendering="optimizeQuality" text-rendering="geometricPrecision" transform="translate(206,902)"><ellipse cx="96" cy="20" fill="none" clip-path="url(#clipPath26)" rx="96" ry="20"/></g><g fill="#000" fill-opacity="1" stroke="#000" stroke-opacity="1" font-family="sans-serif" font-size="11" image-rendering="optimizeQuality" text-rendering="geometricPrecision"><text x="5" y="24" stroke="none" clip-path="url(#clipPath27)" transform="translate(206,902)" xml:space="preserve">Berichten van anderen verwijderen</text></g><g fill="#000" fill-opacity="1" stroke="#000" stroke-opacity="1" font-family="sans-serif" font-size="11" image-rendering="optimizeQuality" text-rendering="geometricPrecision"><text x="10" y="12" stroke="none" clip-path="url(#clipPath28)" transform="translate(74,77)" xml:space="preserve">Gast</text></g><g fill="#000" fill-opacity="1" stroke="#000" stroke-opacity="1" font-family="sans-serif" font-size="11" image-rendering="optimizeQuality" text-rendering="geometricPrecision"><text x="9" y="12" stroke="none" clip-path="url(#clipPath29)" transform="translate(62,328)" xml:space="preserve">Gebruiker</text></g><g fill="#000" fill-opacity="1" stroke="#000" stroke-opacity="1" font-family="sans-serif" font-size="11" image-rendering="optimizeQuality" text-rendering="geometricPrecision"><text x="10" y="13" stroke="none" clip-path="url(#clipPath30)" transform="translate(2,857)" xml:space="preserve">Beheerder van pagina</text></g><g fill="#000" fill-opacity="1" stroke="#000" stroke-opacity="1" font-family="sans-serif" font-size="11" image-rendering="optimizeQuality" text-rendering="geometricPrecision"><text x="11" y="12" stroke="none" clip-path="url(#clipPath31)" transform="translate(20,553)" xml:space="preserve">Lid van pagina</text></g><g fill="#000" fill-opacity="1" stroke="#000" stroke-linecap="butt" stroke-linejoin="round" stroke-opacity="1" font-family="sans-serif" font-size="11" image-rendering="optimizeQuality" text-rendering="geometricPrecision" transform="translate(57,-8)"><line x1="55" x2="187" y1="55" y2="55" fill="none" clip-path="url(#clipPath33)"/></g><g fill="#000" fill-opacity="1" stroke="#000" stroke-linecap="butt" stroke-linejoin="round" stroke-opacity="1" font-family="sans-serif" font-size="11" image-rendering="optimizeQuality" text-rendering="geometricPrecision" transform="translate(55,20)"><line x1="56" x2="233" y1="56" y2="60" fill="none" clip-path="url(#clipPath35)"/></g><g fill="#000" fill-opacity="1" stroke="#000" stroke-linecap="butt" stroke-linejoin="round" stroke-opacity="1" font-family="sans-serif" font-size="11" image-rendering="optimizeQuality" text-rendering="geometricPrecision" transform="translate(62,223)"><line x1="50" x2="176" y1="50" y2="50" fill="none" clip-path="url(#clipPath37)"/></g><g fill="#000" fill-opacity="1" stroke="#000" stroke-linecap="butt" stroke-linejoin="round" stroke-opacity="1" font-family="sans-serif" font-size="11" image-rendering="optimizeQuality" text-rendering="geometricPrecision" transform="translate(70,284)"><line x1="63" x2="162" y1="63" y2="150" fill="none" clip-path="url(#clipPath39)"/></g><g fill="#000" fill-opacity="1" stroke="#000" stroke-linecap="butt" stroke-linejoin="round" stroke-opacity="1" font-family="sans-serif" font-size="11" image-rendering="optimizeQuality" text-rendering="geometricPrecision" transform="translate(63,184)"><line x1="50" x2="212" y1="89" y2="50" fill="none" clip-path="url(#clipPath41)"/></g><g fill="#000" fill-opacity="1" stroke="#000" stroke-linecap="butt" stroke-linejoin="round" stroke-opacity="1" font-family="sans-serif" font-size="11" image-rendering="optimizeQuality" text-rendering="geometricPrecision" transform="translate(58,504)"><line x1="63" x2="181" y1="63" y2="63" fill="none" clip-path="url(#clipPath43)"/></g><g fill="#000" fill-opacity="1" stroke="#000" stroke-linecap="butt" stroke-linejoin="round" stroke-opacity="1" font-family="sans-serif" font-size="11" image-rendering="optimizeQuality" text-rendering="geometricPrecision" transform="translate(7,284)"><line x1="62" x2="62" y1="63" y2="209" fill="none" clip-path="url(#clipPath45)"/><polygon fill="#fff" stroke="none" points="62 63 56 75 68 75" clip-path="url(#clipPath45)"/><polygon fill="none" points="62 63 56 75 68 75" clip-path="url(#clipPath45)"/></g><g fill="#000" fill-opacity="1" stroke="#000" stroke-linecap="butt" stroke-linejoin="round" stroke-opacity="1" font-family="sans-serif" font-size="11" image-rendering="optimizeQuality" text-rendering="geometricPrecision" transform="translate(62,123)"><line x1="208" x2="50" y1="50" y2="150" fill="none" clip-path="url(#clipPath47)"/></g><g fill="#000" fill-opacity="1" stroke="#000" stroke-linecap="butt" stroke-linejoin="round" stroke-opacity="1" font-family="sans-serif" font-size="11" image-rendering="optimizeQuality" text-rendering="geometricPrecision" transform="translate(84,292)"><line x1="50" x2="158" y1="50" y2="50" fill="none" clip-path="url(#clipPath49)"/></g><g fill="#000" fill-opacity="1" stroke="#000" stroke-linecap="butt" stroke-linejoin="round" stroke-opacity="1" font-family="sans-serif" font-size="11" image-rendering="optimizeQuality" text-rendering="geometricPrecision" transform="translate(84,296)"><line x1="50" x2="181" y1="50" y2="78" fill="none" clip-path="url(#clipPath51)"/></g><g fill="#000" fill-opacity="1" stroke="#000" stroke-linecap="butt" stroke-linejoin="round" stroke-opacity="1" font-family="sans-serif" font-size="11" image-rendering="optimizeQuality" text-rendering="geometricPrecision" transform="translate(38,414)"><line x1="45" x2="186" y1="404" y2="45" fill="none" clip-path="url(#clipPath53)"/></g><g fill="#000" fill-opacity="1" stroke="#000" stroke-linecap="butt" stroke-linejoin="round" stroke-opacity="1" font-family="sans-serif" font-size="11" image-rendering="optimizeQuality" text-rendering="geometricPrecision" transform="translate(39,752)"><line x1="46" x2="188" y1="45" y2="45" fill="none" clip-path="url(#clipPath55)"/></g><g fill="#000" fill-opacity="1" stroke="#000" stroke-linecap="butt" stroke-linejoin="round" stroke-opacity="1" font-family="sans-serif" font-size="11" image-rendering="optimizeQuality" text-rendering="geometricPrecision" transform="translate(22,448)"><line x1="62" x2="222" y1="62" y2="62" fill="none" clip-path="url(#clipPath57)"/></g><g fill="#000" fill-opacity="1" stroke="#000" stroke-linecap="butt" stroke-linejoin="round" stroke-opacity="1" font-family="sans-serif" font-size="11" image-rendering="optimizeQuality" text-rendering="geometricPrecision" transform="translate(77,794)"><line x1="63" x2="158" y1="63" y2="63" fill="none" clip-path="url(#clipPath59)"/></g><g fill="#000" fill-opacity="1" stroke="#000" stroke-linecap="butt" stroke-linejoin="round" stroke-opacity="1" font-family="sans-serif" font-size="11" image-rendering="optimizeQuality" text-rendering="geometricPrecision" transform="translate(57,508)"><line x1="63" x2="203" y1="63" y2="119" fill="none" clip-path="url(#clipPath61)"/></g><g fill="#000" fill-opacity="1" stroke="#000" stroke-linecap="butt" stroke-linejoin="round" stroke-opacity="1" font-family="sans-serif" font-size="11" image-rendering="optimizeQuality" text-rendering="geometricPrecision" transform="translate(7,507)"><line x1="63" x2="63" y1="63" y2="289" fill="none" clip-path="url(#clipPath63)"/><polygon fill="#fff" stroke="none" points="63 63 57 75 69 75" clip-path="url(#clipPath63)"/><polygon fill="none" points="63 63 57 75 69 75" clip-path="url(#clipPath63)"/></g><g fill="#000" fill-opacity="1" stroke="#000" stroke-linecap="butt" stroke-linejoin="round" stroke-opacity="1" font-family="sans-serif" font-size="11" image-rendering="optimizeQuality" text-rendering="geometricPrecision" transform="translate(55,508)"><line x1="63" x2="198" y1="63" y2="203" fill="none" clip-path="url(#clipPath65)"/></g><g fill="#000" fill-opacity="1" stroke="#000" stroke-linecap="butt" stroke-linejoin="round" stroke-opacity="1" font-family="sans-serif" font-size="11" image-rendering="optimizeQuality" text-rendering="geometricPrecision" transform="translate(93,832)"><line x1="45" x2="135" y1="45" y2="78" fill="none" clip-path="url(#clipPath67)"/></g><g fill="#787878" fill-opacity="1" stroke="#787878" stroke-opacity="1" font-size="8" image-rendering="optimizeQuality" text-rendering="geometricPrecision"><text x="0" y="10" stroke="none" xml:space="preserve">Visual Paradigm Standard(ruben(Utrecht University of Applied Sciences))</text></g></g></svg>